<?xml version="1.0" encoding="iso-8859-1"?>
<!-- Uploaded to: SVG Repo, www.svgrepo.com, Generator: SVG Repo Mixer Tools -->
<svg version="1.1" id="Layer_1" xmlns="http://www.w3.org/2000/svg" xmlns:xlink="http://www.w3.org/1999/xlink" 
	 viewBox="0 0 491.52 491.52" xml:space="preserve">
<circle style="fill:#F6C358;" cx="224.968" cy="224.968" r="224.968"/>
<circle style="fill:#FCD462;" cx="224.968" cy="224.968" r="192.138"/>
<circle style="fill:#FFFFFF;" cx="224.968" cy="224.968" r="179.031"/>
<path style="fill:#64798A;" d="M138.889,312.133c-1.143,0-2.301-0.239-3.404-0.743c-7.741-3.555-14.995-8.085-21.561-13.469
	c-3.5-2.868-4.003-8.021-1.142-11.512c2.859-3.491,8.013-4.01,11.511-1.142c5.489,4.498,11.545,8.284,18.016,11.249
	c4.106,1.885,5.912,6.741,4.026,10.848C144.953,310.367,141.989,312.133,138.889,312.133z"/>
<path style="fill:#E56353;" d="M180.592,248.325c-3.611,0-6.919-2.412-7.893-6.071c-2.093-7.837,0.862-16.369,7.357-21.234
	c3.611-2.717,8.732-1.989,11.448,1.637c2.717,3.611,1.981,8.74-1.637,11.448c-1.102,0.831-1.717,2.597-1.366,3.931
	c1.167,4.369-1.43,8.85-5.791,10.01C181.997,248.238,181.295,248.325,180.592,248.325z"/>
<g>
	<path style="fill:#27A2DB;" d="M193.693,160.831c-1.75,0-3.515-0.558-5.001-1.718c-3.571-2.764-4.226-7.909-1.454-11.472
		c5.265-6.782,14.276-10.465,22.657-9.514c4.49,0.527,7.702,4.593,7.174,9.075c-0.527,4.49-4.69,7.701-9.075,7.174
		c-2.852-0.327-6.032,0.975-7.829,3.283C198.55,159.745,196.139,160.831,193.693,160.831z"/>
	<path style="fill:#27A2DB;" d="M254.284,277.757c-7.956,0-15.643-4.865-18.887-12.215c-1.821-4.13,0.048-8.963,4.187-10.784
		c4.13-1.815,8.963,0.063,10.785,4.186c0.663,1.495,2.564,2.669,4.275,2.429c4.449-0.576,8.564,2.628,9.122,7.11
		c0.559,4.481-2.62,8.564-7.11,9.122C255.866,277.71,255.075,277.757,254.284,277.757z"/>
</g>
<path style="fill:#E56353;" d="M252.164,114.656c-2.477,0-4.809-1.127-6.351-3.021c-0.095,0-0.2,0-0.312,0.008
	c-4.13,0.177-8.292,0.568-12.375,1.151c-4.481,0.639-8.62-2.478-9.259-6.943c-0.639-4.474,2.476-8.62,6.943-9.26
	c4.618-0.655,9.315-1.094,13.981-1.294c11.456-0.431,14.587,6.679,15.226,8.9c1.263,4.338-1.237,8.876-5.576,10.13
	C253.682,114.551,252.915,114.656,252.164,114.656z M244.31,108.751c0,0.008,0,0.008,0,0.016
	C244.31,108.759,244.31,108.759,244.31,108.751z"/>
<path style="fill:#44C4A1;" d="M338.476,176.602c-0.735,0-1.478-0.096-2.213-0.304c-4.778-1.334-9.315-3.348-13.486-5.984
	c-3.826-2.412-4.969-7.461-2.556-11.28c2.412-3.818,7.486-4.961,11.28-2.557c2.836,1.789,5.92,3.155,9.171,4.067
	c4.354,1.214,6.894,5.736,5.672,10.082C345.331,174.237,342.048,176.602,338.476,176.602z"/>
<path style="fill:#FCD462;" d="M335.864,248.765c-0.487,0-0.983-0.04-1.486-0.136c-4.441-0.815-7.381-5.081-6.566-9.522
	c0.607-3.315,0.519-6.808-0.263-10.107c-1.039-4.393,1.685-8.804,6.087-9.842c4.402-1.038,8.796,1.686,9.842,6.088
	c1.287,5.48,1.439,11.296,0.424,16.816C343.182,246.009,339.739,248.765,335.864,248.765z"/>
<path style="fill:#EBF0F3;" d="M273.726,327.624h-10.426c-4.521,0-8.181-3.66-8.181-8.181c0-4.522,3.66-8.181,8.181-8.181h10.426
	c4.522,0,8.18,3.659,8.18,8.181C281.906,323.965,278.248,327.624,273.726,327.624z"/>
<path style="fill:#44C4A1;" d="M119.42,160.831c-0.296,0-0.591-0.016-0.886-0.048c-4.498-0.488-7.741-4.522-7.255-9.012
	c0.775-7.15,4.355-13.925,9.819-18.598c3.434-2.908,8.588-2.525,11.536,0.91c2.931,3.435,2.524,8.596-0.911,11.537
	c-2.293,1.957-3.851,4.912-4.178,7.909C127.089,157.723,123.543,160.831,119.42,160.831z"/>
<path style="fill:#FCD462;" d="M133.423,248.765c-2.597,0-5.152-1.238-6.742-3.54c-0.736-1.07-1.99-1.846-3.276-2.037
	c-4.473-0.655-7.558-4.809-6.903-9.284c0.655-4.465,4.745-7.669,9.284-6.901c5.8,0.854,11.032,4.113,14.364,8.939
	c2.564,3.716,1.629,8.812-2.093,11.377C136.642,248.294,135.021,248.765,133.423,248.765z"/>
<path style="fill:#EBF0F3;" d="M277.566,210.126c-1.462,0-2.948-0.392-4.29-1.214c-7.43-4.587-17.624-3.811-29.192-2.429
	c-4.538,0.584-8.564-2.676-9.092-7.159c-0.535-4.481,2.669-8.556,7.159-9.091c11.304-1.342,26.818-3.195,39.721,4.745
	c3.842,2.372,5.033,7.413,2.668,11.264C282.99,208.744,280.305,210.126,277.566,210.126z"/>
<g>
	<ellipse style="opacity:0.5;fill:#FFFFFF;enable-background:new    ;" cx="223.68" cy="223.678" rx="104.387" ry="104.387"/>
	<path style="opacity:0.5;fill:#FFFFFF;enable-background:new    ;" d="M175.051,284.878
		c-34.841-34.842-35.296-90.876-1.018-125.156c7.65-7.65,16.418-13.471,25.757-17.664c-13.269,3.87-25.784,11.022-36.246,21.485
		c-33.212,33.211-33.214,87.057-0.002,120.269c14.706,14.706,33.459,22.87,52.673,24.552
		C201.177,304.478,186.883,296.709,175.051,284.878z"/>
</g>
<path style="fill:#3A556A;" d="M313.849,133.507c-49.799-49.799-130.542-49.799-180.341,0.001
	c-49.8,49.8-49.801,130.541-0.002,180.342c45.893,45.893,118.004,49.382,168.02,10.694l11.408,11.406l23.015-23.015l-11.407-11.408
	C363.231,251.511,359.742,179.399,313.849,133.507z M297.492,297.492c-40.766,40.766-106.862,40.766-147.627,0
	c-40.767-40.765-40.767-106.86,0-147.627c40.765-40.766,106.859-40.766,147.626,0C338.258,190.631,338.258,256.726,297.492,297.492z
	"/>
<path style="fill:#27A2DB;" d="M342.152,304.38l-37.773,37.773c-2.146,2.147-2.146,5.626,0,7.773l140.233,140.233
	c9.76,9.758,55.305-35.786,45.545-45.546L349.926,304.38C347.778,302.233,344.299,302.233,342.152,304.38z"/>
<g>
	
		<rect x="425.468" y="452.206" transform="matrix(-0.7071 0.7071 -0.7071 -0.7071 1104.921 457.68)" style="fill:#EBF0F3;" width="64.409" height="10.936"/>
	
		<rect x="305.837" y="332.554" transform="matrix(-0.7071 0.7071 -0.7071 -0.7071 816.0917 338.0087)" style="fill:#EBF0F3;" width="64.41" height="10.936"/>
</g>
</svg>